{"title":"White.Collar.Hooligan.2.England.Away.2013 BRRip XViD juggs","uid":8456079,"size":737986489,"categoryP":"video","categoryS":"movies","magnet":"?xt=urn:btih:20f7c81844531c34a938f80e1d1b4d83034e3cf4&amp;dn=White.Collar.Hooligan.2.England.Away.2013+BRRip+XViD+juggs&amp;tr=udp%3A%2F%2Ftracker.openbittorrent.com%3A80&amp;tr=udp%3A%2F%2Fopen.demonii.com%3A1337&amp;tr=udp%3A%2F%2Ftracker.coppersurfer.tk%3A6969&amp;tr=udp%3A%2F%2Fexodus.desync.com%3A6969","seeders":1,"leechers":1,"uploader":"juggs99","files":3,"time":1368110659,"description":"Source : VETO(Thanks)\n &lt;a href=&quot;\nhttp://www.imdb.com/title/tt2291606/&quot; rel=&quot;nofollow&quot; target=&quot;_NEW&quot;&gt;\nhttp://www.imdb.com/title/tt2291606/&lt;/a&gt;\n\nFormat                                   : AVI\nFormat/Info                              : Audio Video Interleave\nFile size                                : 697 MiB\nDuration                                 : 1h 37mn\nOverall bit rate                         : 1 002 Kbps\nWriting library                          : VirtualDub build 32842/release\n\nVideo\nID                                       : 0\nFormat                                   : MPEG-4 Visual\nFormat profile                           : Advanced Simple@L5\nFormat settings, BVOP                    : 2\nFormat settings, QPel                    : No\nFormat settings, GMC                     : No warppoints\nFormat settings, Matrix                  : Default (H.263)\nMuxing mode                              : Packed bitstream\nCodec ID                                 : XVID\nCodec ID/Hint                            : XviD\nDuration                                 : 1h 37mn\nBit rate                                 : 864 Kbps\nWidth                                    : 640 pixels\nHeight                                   : 272 pixels\nDisplay aspect ratio                     : 2.35:1\nFrame rate                               : 23.976 fps\nColor space                              : YUV\nChroma subsampling                       : 4:2:0\nBit depth                                : 8 bits\nScan type                                : Progressive\nCompression mode                         : Lossy\nBits/(Pixel*Frame)                       : 0.207\nStream size                              : 601 MiB (86%)\nWriting library                          : XviD 1.2.0.dev47 (UTC 2006-11-01)\n\nAudio\nID                                       : 1\nFormat                                   : MPEG Audio\nFormat version                           : Version 1\nFormat profile                           : Layer 3\nMode                                     : Joint stereo\nMode extension                           : MS Stereo\nCodec ID                                 : 55\nCodec ID/Hint                            : MP3\nDuration                                 : 1h 37mn\nBit rate mode                            : Constant\nBit rate                                 : 128 Kbps\nChannel(s)                               : 2 channels\nSampling rate                            : 44.1 KHz\nCompression mode                         : Lossy\nStream size                              : 89.0 MiB (13%)\nAlignment                                : Split accross interleaves\nInterleave, duration                     : 42 ms (1.00 video frame)\nInterleave, preload duration             : 500 ms\nWriting library                          : LAME3.98.2\n\nPlot\nMike Jacobs thinks he's safe in Witness Protection in Spain. However, when he's spotted at an England game, a deadly game of cat and mouse between London, Marbella and New York ensues.\n &lt;a href=&quot;\nhttp://www.shotpix.com/images/40059631123219410006.png&quot; rel=&quot;nofollow&quot; target=&quot;_NEW&quot;&gt;\nhttp://www.shotpix.com/images/40059631123219410006.png&lt;/a&gt; &lt;a href=&quot;\nhttp://www.shotpix.com/images/91333543963096471156.png&quot; rel=&quot;nofollow&quot; target=&quot;_NEW&quot;&gt;\nhttp://www.shotpix.com/images/91333543963096471156.png&lt;/a&gt; &lt;a href=&quot;\nhttp://www.shotpix.com/images/87220711928737215360.png&quot; rel=&quot;nofollow&quot; target=&quot;_NEW&quot;&gt;\nhttp://www.shotpix.com/images/87220711928737215360.png&lt;/a&gt;","torrent":{"xt":"urn:btih:20f7c81844531c34a938f80e1d1b4d83034e3cf4","amp;dn":"White.Collar.Hooligan.2.England.Away.2013+BRRip+XViD+juggs","amp;tr":["udp%3A%2F%2Ftracker.openbittorrent.com%3A80","udp%3A%2F%2Fopen.demonii.com%3A1337","udp%3A%2F%2Ftracker.coppersurfer.tk%3A6969","udp%3A%2F%2Fexodus.desync.com%3A6969"],"infoHash":"20f7c81844531c34a938f80e1d1b4d83034e3cf4","infoHashBuffer":{"type":"Buffer","data":[32,247,200,24,68,83,28,52,169,56,248,14,29,27,77,131,3,78,60,244]},"announce":[],"urlList":[]}}